# xmcd CD database file
#
# Track frame offsets:
#	150
#	26882
#	63133
#	96973
#	126214
#	158361
#	184926
#	213446
#	250604
#
# Disc length: 3726 seconds
#
# Revision: 0
# Processed by: cddbd v1.5.2PL0 Copyright (c) Steve Scherf et al.
# Submitted via: CDex 1.51
#
DISCID=720e8c09
DTITLE=Stefano Bollani - Stone In The Water
DYEAR=2009
DGENRE=Jazz
TTITLE0=Dom De Iludir
TTITLE1=Orvieto
TTITLE2=Edith
TTITLE3=Brigas Nunca Mais
TTITLE4=Il Cervello Del Pavone
TTITLE5=Un Sasso Nello Stagno
TTITLE6=Improvisation 13 En La Mineur
TTITLE7=Asuda
TTITLE8=Joker In The Village
EXTD=YEAR: 2009
EXTT0=
EXTT1=
EXTT2=
EXTT3=
EXTT4=
EXTT5=
EXTT6=
EXTT7=
EXTT8=
PLAYORDER=
